<?xml version="1.0" standalone="no"?><!DOCTYPE svg PUBLIC "-//W3C//DTD SVG 1.1//EN" "http://www.w3.org/Graphics/SVG/1.1/DTD/svg11.dtd"><svg t="1506681473090" class="icon" style="" viewBox="0 0 1024 1024" version="1.1" xmlns="http://www.w3.org/2000/svg" p-id="1978" xmlns:xlink="http://www.w3.org/1999/xlink" width="32" height="32"><defs><style type="text/css"></style></defs><path d="M538.321211 1.034082C530.549445 0.431734 522.687685 0.100431 514.795914 0.010082 506.874132-0.050137 499.042343 0.160689 491.240606 0.612431 264.089482 14.075274 129.869273 264.718966 231.202068 469.311921L479.477957 1007.373627C490.370402 1029.329802 521.487399 1029.600847 532.739938 1007.825408L790.2579 474.160955C895.101519 271.344994 765.172263 18.412308 538.321211 1.034082L538.321211 1.034082ZM510.865014 455.75873C436.598311 455.096123 376.914865 394.136891 377.57503 319.564209 378.205145 244.961438 438.938821 185.056335 513.175552 185.688812 587.442255 186.32129 647.125701 247.310651 646.465536 321.883333 645.835382 396.455975 585.131717 456.391207 510.865014 455.75873L510.865014 455.75873Z" p-id="1979" fill="#d81e06"></path></svg>